<svg xmlns="http://www.w3.org/2000/svg" viewBox="0 0 910 512">
  <path fill="#111" d="M0 0h910v512H0z"/>
  <path fill="#777" d="M449.7 289.8h-32v-34.1c0-3.6-2.2-6.7-5.5-7.9l-10.5-3.8v-65.1h32v44.6c9.9 7.5 16 19.4 16 32.2v34.1z"/>
  <path fill="#AAA" d="M449.7 255.7h-32v-32.1c0-3.6-2.2-6.7-5.5-7.9l-26.5-9.6v-27.2h32v4.8l5.5 2c15.9 5.8 26.5 21 26.5 37.9v32.1z"/>
  <path fill="#DDD" d="M449.7 223.7h-32v-16c0-3.6-2.2-6.7-5.5-7.9l-48-17.5 11-30.1 48 17.5c15.9 5.8 26.5 21 26.5 37.9v16.1z"/>
  <path fill="#FFF" d="M545.7 327.7l-11.6 32H417.7v-192l32 11.7v148.3z"/>
</svg>
