<?xml version="1.0" encoding="utf-8"?>
<svg version="1.1" xmlns="http://www.w3.org/2000/svg" xmlns:xlink="http://www.w3.org/1999/xlink" xml:space="preserve" x="0px" y="0px" viewBox="0 0 678 64" fill="#EEE">
	<polygon class="l" points="48,48 48,64 0,64 0,0 16,0 16,48"/>
	<path class="u" d="M104,0v40c0,13.3-10.7,24-23.9,24h-0.2C66.7,64,56,53.3,56,40V0h16v40c0,4.4,3.6,8,8,8h1c4.4,0,8-3.6,8-8V0H104z"/>
	<path class="c" d="M143.6,48c-8.7,0-15.8-7.2-15.8-16s7.1-16,15.8-16c4.4,0,8.3,1.8,11.2,4.7L166,9.4C160.3,3.6,152.4,0,143.6,0C126.2,0,112,14.3,112,32s14.2,32,31.6,32c8.7,0,16.6-3.6,22.4-9.4l-11.2-11.3C152,46.2,148,48,143.6,48z"/>
	<rect class="i" x="174" width="16" height="64"/>
	<polygon class="a" points="246,64 262,64 230,0 198,64 214,64 222,48 238,48"/>
	<polygon class="n" points="318,0 318,64 302,64 286,34 286,64 270,64 270,0 286,0 302,30 302,0"/>
	<path class="o" d="M358,0c-17.7,0-32,14.3-32,32s14.3,32,32,32c17.7,0,32-14.3,32-32S375.7,0,358,0z M358,48c-8.8,0-16-7.2-16-16s7.2-16,16-16s16,7.2,16,16S366.8,48,358,48z"/>

	<polygon class="f" points="422,0 422,64 437,64 437,40 454,40 454,24 437,24 437,16 470,16 470,0"/>
	<polygon class="e" points="478,0 478,64 526,64 526,47 494,47 494,40 510,40 510,24 494,24 494,16 526,16 526,0"/>
	<polygon class="l" points="582,48 582,64 534,64 534,0 550,0 550,48"/>
	<rect class="i" x="590" width="16" height="64"/>
	<polygon class="x" points="678,0 658.5,0 646,18 633.5,0 614,0 636.3,32 614,64 633.5,64 646,46 658.5,64 678,64 655.7,32"/>
</svg>
